<svg width="260" height="260" viewBox="0 0 260 260" fill="none" xmlns="http://www.w3.org/2000/svg">
<g clip-path="url(#clip0)">
<rect width="260" height="260" fill="#F3E4B2"/>
<path d="M204.22 269.254V269.269H55.7786V269.254C55.7786 260.873 57.164 252.799 59.7388 245.286C60.2002 243.929 60.7051 242.587 61.2494 241.256V241.242C61.7815 239.913 62.3681 238.612 62.9846 237.324C65.4329 232.161 68.4827 227.334 72.0238 222.912C72.9192 221.806 73.8283 220.729 74.766 219.695C75.2273 219.162 75.7173 218.646 76.2072 218.127C76.6971 217.624 77.1871 217.12 77.6906 216.617C80.1947 214.113 82.8811 211.818 85.7077 209.705C87.1217 208.655 88.5479 207.677 90.0313 206.726C90.6601 206.32 91.3038 205.928 91.9475 205.551C92.3245 205.327 92.6892 205.103 93.0662 204.879C93.2349 204.794 93.3887 204.711 93.5561 204.613C93.8922 204.417 94.227 204.236 94.5632 204.054C94.5917 204.027 94.619 204.027 94.619 204.027C95.2205 203.706 95.807 203.356 96.3963 202.991C98.1451 201.942 99.8244 200.781 101.419 199.494C103.756 197.633 105.925 195.548 107.87 193.267C109.619 191.225 111.2 189.028 112.572 186.692C114.098 184.145 115.384 181.445 116.392 178.617C116.896 177.19 117.343 175.735 117.708 174.238C117.989 173.189 118.212 172.124 118.408 171.047C118.883 168.36 119.134 165.589 119.134 162.764L129.951 162.82H130.007L131.896 162.833L141.074 162.876C141.074 165.645 141.312 168.36 141.773 171.006C141.956 172.097 142.194 173.175 142.473 174.238C142.822 175.706 143.257 177.149 143.746 178.546C144.754 181.402 146.027 184.13 147.552 186.69C148.797 188.817 150.211 190.818 151.777 192.707C153.82 195.211 156.129 197.478 158.662 199.506C159.194 199.94 159.725 200.361 160.272 200.751C160.761 201.116 161.264 201.464 161.769 201.8C161.881 201.885 161.979 201.954 162.09 202.024C162.594 202.36 163.097 202.696 163.629 203.003C164.202 203.355 164.792 203.704 165.378 204.025C165.476 204.053 165.561 204.096 165.63 204.152C166.862 204.838 168.078 205.551 169.268 206.293C169.842 206.642 170.415 207.006 170.976 207.411C172.136 208.153 173.27 208.964 174.375 209.804C174.375 209.819 174.39 209.819 174.39 209.819H174.404C175.818 210.868 177.188 211.987 178.531 213.135C179.875 214.283 181.162 215.487 182.407 216.732C195.895 230.162 204.22 248.715 204.22 269.254Z" fill="#ECC19C"/>
<path d="M204.22 269.254H55.7786C55.7786 260.873 57.164 252.799 59.7388 245.286C60.2002 243.929 60.7051 242.587 61.2494 241.256V241.242C61.7815 239.913 62.3681 238.612 62.9846 237.324C65.4329 232.161 68.4827 227.334 72.0238 222.912C72.9192 221.806 73.8283 220.729 74.766 219.695C75.2273 219.162 75.7173 218.646 76.2072 218.127C76.6971 217.624 77.1871 217.12 77.6906 216.617C80.1947 214.113 82.8811 211.818 85.7077 209.705C87.1217 208.655 88.5479 207.677 90.0313 206.726C90.6601 206.32 91.3038 205.928 91.9475 205.551C92.3245 205.326 92.6892 205.103 93.0662 204.879C93.2349 204.794 93.3887 204.711 93.5561 204.613C93.8922 204.417 94.227 204.221 94.5632 204.04C94.5917 204.012 94.619 204.025 94.619 204.025V204.012C95.2205 203.676 95.807 203.34 96.3963 202.99C98.1451 201.927 99.8244 200.75 101.391 199.464C101.404 199.477 101.404 199.477 101.419 199.492C108.668 206.908 118.756 211.512 129.95 211.54H130.061C130.678 211.54 131.293 211.525 131.894 211.485C142.36 211.022 151.791 206.517 158.661 199.506L158.674 199.492C159.668 200.317 160.703 201.087 161.766 201.8C161.878 201.885 161.976 201.954 162.087 202.024C162.591 202.36 163.108 202.681 163.627 203.003C164.2 203.355 164.789 203.689 165.375 204.012C165.473 204.04 165.544 204.096 165.627 204.137C166.859 204.823 168.075 205.536 169.265 206.293C169.839 206.642 170.412 207.006 170.973 207.411C172.134 208.153 173.267 208.964 174.372 209.804H174.401C175.815 210.867 177.199 211.973 178.529 213.134C179.872 214.281 181.159 215.486 182.405 216.731C195.895 230.162 204.22 248.715 204.22 269.254Z" fill="#5AB7B2"/>
<path d="M152.926 180.573V189.095C152.926 190.437 152.505 191.682 151.779 192.704C150.645 194.355 148.742 195.433 146.588 195.433H112.628C110.725 195.433 109.019 194.593 107.87 193.263C106.89 192.145 106.289 190.689 106.289 189.095V180.573C106.289 178.165 107.632 176.067 109.605 175.004C110.501 174.514 111.536 174.234 112.628 174.234H146.587C147.847 174.234 149.008 174.597 149.986 175.241C151.75 176.349 152.926 178.334 152.926 180.573Z" fill="#5AB7B2"/>
<path d="M160.272 200.748V219.33H91.949V205.548C92.3259 205.324 92.6907 205.101 93.0676 204.876C93.2364 204.792 93.3902 204.709 93.5576 204.611C93.8937 204.415 94.2285 204.234 94.5646 204.051C94.5932 204.024 94.6204 204.024 94.6204 204.024C95.222 203.703 95.8085 203.353 96.3978 202.988C98.1466 201.939 99.8259 200.778 101.421 199.491C103.758 197.631 105.927 195.546 107.872 193.265C109.62 191.222 111.202 189.026 112.574 186.689H147.553C148.798 188.816 150.212 190.816 151.779 192.705C153.821 195.21 156.131 197.477 158.664 199.505C159.194 199.939 159.725 200.358 160.272 200.748Z" fill="#5AB7B2"/>
<path d="M205.075 91.4727C205.075 122.171 189.054 148.868 165.476 162.44C158.214 166.637 150.226 169.575 141.773 171.003C138.541 171.562 135.239 171.883 131.896 171.968C131.266 171.983 130.637 171.995 130.007 171.995H129.993C126.048 171.995 122.186 171.674 118.408 171.044C109.886 169.631 101.855 166.679 94.5373 162.452C70.9609 148.895 54.9253 122.183 54.9253 91.4714C54.9253 48.11 86.855 12.7522 126.873 11.017C126.928 11.0034 126.971 11.0034 127.026 11.0034C127.418 10.9898 127.81 10.9748 128.202 10.9612C128.79 10.9476 129.363 10.934 129.951 10.934H130.007C130.608 10.934 131.21 10.9476 131.811 10.9612H131.938C132.357 10.9748 132.778 10.9898 133.197 11.017H133.239C133.435 11.0306 133.631 11.0456 133.827 11.0592C134.065 11.0728 134.303 11.0878 134.54 11.1014C173.885 13.6341 205.075 48.6285 205.075 91.4727Z" fill="#141720"/>
<path d="M186.968 67.8949V110.445C186.968 111.062 186.954 111.677 186.94 112.292C186.927 112.795 186.912 113.285 186.883 113.789C186.87 114.237 186.841 114.684 186.799 115.132C186.785 115.453 186.757 115.776 186.729 116.098C186.716 116.294 186.702 116.477 186.674 116.671C186.645 117.021 186.616 117.384 186.561 117.734C186.505 118.407 186.42 119.064 186.322 119.736C186.309 119.904 186.28 120.072 186.253 120.24C186.211 120.576 186.155 120.911 186.099 121.247V121.289C186.015 121.779 185.932 122.254 185.848 122.744C185.722 123.415 185.596 124.087 185.456 124.744C185.442 124.773 185.442 124.8 185.427 124.829C185.413 124.927 185.4 125.025 185.371 125.123C185.358 125.151 185.358 125.178 185.344 125.207C185.275 125.57 185.19 125.92 185.106 126.27C185.077 126.424 185.05 126.577 184.994 126.731C184.952 126.983 184.883 127.235 184.826 127.487C184.783 127.627 184.756 127.78 184.7 127.919C184.672 128.046 184.63 128.172 184.602 128.284C184.308 129.431 183.974 130.55 183.622 131.67C183.455 132.202 183.286 132.719 183.105 133.251C183.092 133.307 183.063 133.363 183.05 133.42C182.881 133.895 182.713 134.371 182.546 134.846C182.49 134.986 182.434 135.125 182.377 135.28C182.21 135.728 182.041 136.176 181.86 136.624C181.65 137.169 181.426 137.701 181.203 138.234C181.007 138.71 180.797 139.185 180.588 139.661C180.559 139.746 180.518 139.815 180.49 139.899C180.251 140.403 180.028 140.906 179.79 141.396C179.552 141.914 179.3 142.432 179.035 142.949C178.531 143.971 177.986 144.992 177.44 145.985L176.683 147.329C174.529 151.037 172.136 154.521 169.534 157.738C169.185 158.201 168.821 158.647 168.443 159.081C167.924 159.712 167.394 160.327 166.861 160.927C166.414 161.432 165.952 161.949 165.476 162.439C165.462 162.467 165.447 162.48 165.42 162.508C164.077 163.951 162.705 165.32 161.308 166.609C161.027 166.888 160.735 167.141 160.439 167.406C159.963 167.839 159.488 168.259 158.998 168.666C158.62 169.001 158.228 169.324 157.837 169.645C156.83 170.471 155.822 171.268 154.801 172.01C154.381 172.331 153.948 172.64 153.514 172.934C152.814 173.438 152.101 173.914 151.387 174.375C150.995 174.641 150.589 174.894 150.184 175.132C150.114 175.173 150.057 175.216 149.988 175.244C148.631 176.082 147.245 176.852 145.888 177.524C145.539 177.707 145.189 177.874 144.839 178.042C144.489 178.21 144.126 178.378 143.748 178.545C143.286 178.755 142.825 178.952 142.362 179.133C142.181 179.219 141.999 179.287 141.817 179.343C141.271 179.567 140.712 179.777 140.166 179.959C139.48 180.211 138.78 180.42 138.096 180.616C137.62 180.757 137.13 180.882 136.655 180.993C136.626 181.007 136.599 181.022 136.557 181.022C136.08 181.134 135.605 181.245 135.13 181.33C135.004 181.358 134.877 181.387 134.752 181.4C134.36 181.471 133.968 181.539 133.576 181.583C133.017 181.667 132.458 181.736 131.898 181.765C131.702 181.794 131.52 181.806 131.324 181.806C130.876 181.833 130.444 181.848 130.009 181.848H129.954C129.519 181.848 129.085 181.833 128.653 181.806C128.484 181.806 128.316 181.792 128.148 181.765C127.756 181.75 127.35 181.709 126.93 181.653C126.845 181.653 126.749 181.639 126.664 181.625C126.146 181.554 125.629 181.471 125.096 181.372C124.649 181.301 124.201 181.204 123.74 181.093C121.347 180.547 118.884 179.721 116.393 178.616C114.266 177.678 112.112 176.546 109.971 175.23C109.845 175.161 109.733 175.076 109.607 175.007C108.655 174.419 107.689 173.789 106.751 173.131C106.219 172.754 105.689 172.375 105.156 171.984C103.491 170.766 101.841 169.438 100.218 168.01C99.7699 167.603 99.3222 167.198 98.8745 166.779C98.4267 166.373 97.979 165.954 97.5449 165.548C96.5092 164.555 95.5021 163.534 94.5372 162.456C94.4678 162.401 94.412 162.33 94.3562 162.274C93.9507 161.841 93.5451 161.394 93.1382 160.931C92.0182 159.672 90.9267 158.371 89.8925 157.014C89.4869 156.524 89.1086 156.021 88.7302 155.516C87.3162 153.64 85.9744 151.682 84.7142 149.653C84.378 149.107 84.0419 148.547 83.7207 148.002C83.3288 147.345 82.9518 146.673 82.5735 146.002C81.1745 143.483 79.887 140.867 78.7684 138.167C78.601 137.775 78.4322 137.383 78.292 136.991C78.0675 136.488 77.8715 135.97 77.6905 135.466C77.4102 134.724 77.1448 133.982 76.8917 133.24C76.6399 132.499 76.4031 131.743 76.1649 130.988C75.9404 130.26 75.7308 129.533 75.5348 128.792C75.3103 128.008 75.1007 127.21 74.9197 126.399C74.9061 126.315 74.8775 126.232 74.8625 126.147C74.5972 125.029 74.359 123.895 74.1494 122.748C73.8704 121.236 73.6459 119.697 73.4785 118.144C73.4077 117.654 73.3655 117.164 73.3247 116.674C73.2689 116.157 73.2267 115.652 73.1995 115.135C73.1287 114.197 73.0866 113.246 73.0593 112.295C73.0457 111.678 73.0308 111.063 73.0308 110.448V67.8949C73.0308 37.4908 96.8589 12.6406 126.872 11.017C126.928 11.0034 126.97 11.0034 127.026 11.0034C127.418 10.9898 127.81 10.9748 128.202 10.9612C128.79 10.9476 129.363 10.934 129.951 10.934H130.007C130.608 10.934 131.21 10.9476 131.811 10.9612H131.938C132.357 10.9748 132.777 10.9898 133.197 11.017H133.239C133.435 11.0306 133.631 11.0456 133.827 11.0592C134.247 11.0878 134.666 11.115 135.072 11.1572C135.282 11.1708 135.478 11.1858 135.688 11.213C135.829 11.2266 135.954 11.2416 136.094 11.2552C138.319 11.4933 140.502 11.8567 142.629 12.333C146.338 13.1727 149.905 14.3757 153.29 15.9013C157.908 17.9726 162.203 20.6305 166.065 23.8069C169.311 26.4661 172.264 29.4601 174.838 32.7617C182.338 42.318 186.856 54.3239 186.955 67.3914C186.968 67.5601 186.968 67.7275 186.968 67.8949Z" fill="#ECC19C"/>
<path d="M199.673 88.9809H60.3403C60.3403 47.0471 89.8503 12.8502 126.873 11.017C126.928 11.0034 126.971 11.0034 127.026 11.0034C127.418 10.9898 127.81 10.9748 128.202 10.9612C128.79 10.9476 129.363 10.934 129.951 10.934H130.007C130.608 10.934 131.21 10.9476 131.811 10.9612H131.938C132.357 10.9748 132.778 10.9898 133.197 11.017H133.239C133.435 11.0306 133.631 11.0456 133.827 11.0592C134.065 11.0728 134.303 11.0878 134.54 11.1014C134.709 11.115 134.89 11.13 135.072 11.1586C135.282 11.1722 135.478 11.1871 135.689 11.2144C135.829 11.228 135.954 11.2429 136.094 11.2565C171.716 14.6983 199.673 48.1808 199.673 88.9809Z" fill="#141720"/>
</g>
<defs>
<clipPath id="clip0">
<rect width="260" height="260" fill="white"/>
</clipPath>
</defs>
</svg>
